PathFileType	4	(X/Y/Z)	c:/Users/goper/Files/vsCode/490R/osim_files/A01/A01_PWS_05.trc
DataRate	CameraRate	NumFrames	NumMarkers	Units                	OrigDataRate	OrigDataStartFrame	OrigNumFrames
120.00	120.00	7	36	mm	120.0	1044	1193
                Frame#	Time	Mobility_markerset:LPSIS			Mobility_markerset:LASIS			Mobility_markerset:LTH1			Mobility_markerset:LTH2			Mobility_markerset:LTH3			Mobility_markerset:LTH4			Mobility_markerset:LLFE			Mobility_markerset:LMFE			Mobility_markerset:LSH1			Mobility_markerset:LSH2			Mobility_markerset:LSH3			Mobility_markerset:LSH4			Mobility_markerset:LLMAL			Mobility_markerset:LMMAL			Mobility_markerset:LCAL			Mobility_markerset:LMTP5			Mobility_markerset:LTOE			Mobility_markerset:LMTP1			Mobility_markerset:RPSIS			Mobility_markerset:RASIS			Mobility_markerset:RTH1			Mobility_markerset:RTH2			Mobility_markerset:RTH3			Mobility_markerset:RTH4			Mobility_markerset:RLFE			Mobility_markerset:RMFE			Mobility_markerset:RSH1			Mobility_markerset:RSH2			Mobility_markerset:RSH3			Mobility_markerset:RSH4			Mobility_markerset:RLMAL			Mobility_markerset:RMMAL			Mobility_markerset:RCAL			Mobility_markerset:RMTP1			Mobility_markerset:RTOE			Mobility_markerset:RMTP5		
		X1	Y1	Z1	X2	Y2	Z2	X3	Y3	Z3	X4	Y4	Z4	X5	Y5	Z5	X6	Y6	Z6	X7	Y7	Z7	X8	Y8	Z8	X9	Y9	Z9	X10	Y10	Z10	X11	Y11	Z11	X12	Y12	Z12	X13	Y13	Z13	X14	Y14	Z14	X15	Y15	Z15	X16	Y16	Z16	X17	Y17	Z17	X18	Y18	Z18	X19	Y19	Z19	X20	Y20	Z20	X21	Y21	Z21	X22	Y22	Z22	X23	Y23	Z23	X24	Y24	Z24	X25	Y25	Z25	X26	Y26	Z26	X27	Y27	Z27	X28	Y28	Z28	X29	Y29	Z29	X30	Y30	Z30	X31	Y31	Z31	X32	Y32	Z32	X33	Y33	Z33	X34	Y34	Z34	X35	Y35	Z35	X36	Y36	Z36

1044	8.69167	0.00000	0.00000	0.00000	-4115.63330	1015.82440	785.48303	0.00000	0.00000	0.00000	-4077.34814	639.06976	699.71985	-4084.20972	690.65240	750.69458	-4101.92041	647.62213	745.09369	0.00000	0.00000	0.00000	0.00000	0.00000	0.00000	0.00000	0.00000	0.00000	0.00000	0.00000	0.00000	-4174.11621	365.70230	695.38800	0.00000	0.00000	0.00000	-4189.37842	94.47775	592.09717	-4264.77002	100.86259	555.74225	0.00000	0.00000	0.00000	-4225.96729	42.77246	728.70563	-4296.31982	62.93905	730.96942	-4322.85645	53.45908	705.00690	-4192.73193	1059.38965	492.64682	-4347.53955	1004.31915	675.73718	-4428.70703	689.53497	560.92719	-4438.89062	651.01672	580.29126	-4461.24854	714.04059	608.72357	-4469.94922	674.95673	616.68384	-4464.56152	525.28430	660.28204	0.00000	0.00000	0.00000	-4375.54004	416.14175	496.38336	-4363.73535	378.37173	472.48755	-4404.48047	376.64188	532.48969	-4389.44580	345.07242	504.77029	-4300.89062	221.61647	405.15497	0.00000	0.00000	0.00000	-4225.13672	227.33395	383.96735	-4283.89990	91.94609	532.41016	-4340.69092	86.50923	536.14539	-4359.02393	90.60671	447.30057
1045	8.70000	0.00000	0.00000	0.00000	-4115.20996	1016.45667	787.72180	0.00000	0.00000	0.00000	0.00000	0.00000	0.00000	-4085.61694	690.56793	752.20929	-4102.26270	647.86084	745.59930	0.00000	0.00000	0.00000	0.00000	0.00000	0.00000	0.00000	0.00000	0.00000	0.00000	0.00000	0.00000	-4174.49609	365.70972	696.27954	0.00000	0.00000	0.00000	-4189.45654	94.65981	592.21863	-4264.88477	100.96729	555.84845	0.00000	0.00000	0.00000	-4225.95947	42.71593	728.76337	-4296.71484	63.00393	731.49884	-4322.89746	53.38728	705.07666	-4197.49170	1059.74390	496.22617	-4348.69971	1005.56207	681.85236	-4432.85254	690.22083	569.74042	-4442.66211	651.81451	589.51123	-4464.32031	714.94232	618.14703	-4473.08057	676.12677	626.29529	-4466.38818	526.45142	670.90601	0.00000	0.00000	0.00000	-4381.75928	412.98706	507.28925	-4370.80664	374.37057	484.21326	-4411.21387	374.90723	544.40466	-4398.26172	342.18289	516.89270	-4312.96631	214.96683	418.53372	0.00000	0.00000	0.00000	-4237.30273	218.00525	396.24484	-4298.56641	88.29130	548.87463	-4355.25684	84.44578	553.21704	-4374.59570	86.96697	464.55573
1046	8.70833	0.00000	0.00000	0.00000	-4114.68701	1017.00897	789.82751	0.00000	0.00000	0.00000	-4078.85010	639.39771	700.32001	-4085.96411	690.48767	752.88489	-4103.60254	647.77771	747.07587	0.00000	0.00000	0.00000	0.00000	0.00000	0.00000	0.00000	0.00000	0.00000	0.00000	0.00000	0.00000	-4173.78271	365.69983	696.29211	0.00000	0.00000	0.00000	-4189.52930	94.88465	592.37885	-4263.98975	98.37495	554.39960	0.00000	0.00000	0.00000	-4225.93018	42.69507	728.78912	-4296.38672	62.76619	731.13574	-4322.94971	53.35163	705.15674	-4202.20508	1060.29419	499.78946	-4349.95215	1006.69861	687.95221	-4436.99854	690.87347	578.56287	-4446.37061	652.62512	598.68103	-4467.28613	715.84387	627.67761	-4475.97656	677.17358	635.99969	-4467.85742	527.54065	681.24194	0.00000	0.00000	0.00000	-4387.73096	409.53699	518.21680	-4377.92285	370.15616	495.74234	-4417.66504	372.90036	556.40845	-4405.88330	339.40005	529.36481	-4324.92188	208.04034	432.52179	0.00000	0.00000	0.00000	-4249.43408	208.37663	409.31473	-4312.97412	84.49263	565.96851	-4369.50195	82.17330	570.82935	-4389.72949	83.06256	482.31247
1047	8.71667	0.00000	0.00000	0.00000	-4114.16211	1017.22290	791.72070	0.00000	0.00000	0.00000	-4079.80249	639.56580	700.81671	-4086.17847	690.47449	753.55353	-4103.60156	647.30713	747.56573	0.00000	0.00000	0.00000	0.00000	0.00000	0.00000	0.00000	0.00000	0.00000	0.00000	0.00000	0.00000	-4175.22168	365.64706	698.02612	0.00000	0.00000	0.00000	-4189.55420	95.06952	592.50067	-4265.18848	102.47163	556.45593	0.00000	0.00000	0.00000	-4225.92236	42.64375	728.81494	-4296.39648	62.65702	731.23676	-4322.98633	53.28563	705.21680	-4206.89648	1060.74756	503.35266	-4351.27246	1007.66302	694.03210	-4441.01514	691.49487	587.42010	-4449.93213	653.33051	607.91199	-4470.01465	716.59808	637.30292	-4478.72168	678.18097	645.69647	-4469.00342	528.55951	691.26459	0.00000	0.00000	0.00000	-4393.38672	405.77502	529.17603	-4384.80029	365.68112	507.49786	-4425.12207	371.12933	567.94690	-4414.03418	336.51733	541.74017	-4336.79785	200.78339	447.17459	0.00000	0.00000	0.00000	-4261.50488	198.49142	423.15903	-4327.19775	80.64874	583.72754	-4383.44287	79.77129	589.03168	-4404.54053	79.08437	500.75348
1048	8.72500	0.00000	0.00000	0.00000	-4113.67383	1017.22522	793.65546	0.00000	0.00000	0.00000	0.00000	0.00000	0.00000	-4085.31128	690.47852	753.30713	-4104.33789	647.62738	748.32922	0.00000	0.00000	0.00000	0.00000	0.00000	0.00000	0.00000	0.00000	0.00000	0.00000	0.00000	0.00000	-4175.63916	365.58493	698.86090	0.00000	0.00000	0.00000	-4189.64941	95.21574	592.62183	0.00000	0.00000	0.00000	0.00000	0.00000	0.00000	-4225.89990	42.57874	728.86554	-4296.42334	62.52032	731.31580	-4323.02637	53.23078	705.28857	-4212.09180	1061.74670	506.75888	-4352.68115	1008.62964	700.11060	-4444.94629	692.08923	596.32886	-4453.33447	654.00989	617.06116	-4472.50732	717.24524	646.97632	-4477.41797	675.96722	658.02649	-4469.78955	529.38324	700.98273	0.00000	0.00000	0.00000	-4398.88428	401.70728	540.12805	-4391.50635	360.93494	519.25214	-4431.04541	368.83768	580.03119	-4421.16016	333.32385	554.55804	-4348.45557	193.39691	462.44211	0.00000	0.00000	0.00000	-4273.47998	188.47235	437.65729	-4340.97949	76.87543	602.20331	-4396.98389	77.48023	607.92029	-4418.86182	75.05209	519.85742
1049	8.73333	0.00000	0.00000	0.00000	-4113.20557	1017.31018	795.57251	0.00000	0.00000	0.00000	0.00000	0.00000	0.00000	-4086.56812	690.00360	754.59515	-4104.71191	647.63049	748.96527	0.00000	0.00000	0.00000	0.00000	0.00000	0.00000	0.00000	0.00000	0.00000	0.00000	0.00000	0.00000	-4175.95654	365.47745	699.73602	0.00000	0.00000	0.00000	-4189.76953	95.39384	592.71259	0.00000	0.00000	0.00000	0.00000	0.00000	0.00000	-4225.87793	42.57110	728.90497	-4296.45410	62.42884	731.37122	-4323.05908	53.18698	705.35693	-4216.13574	1061.55029	510.47729	-4354.05176	1009.42139	706.13593	-4448.67773	692.64612	605.24017	-4457.42578	654.78485	625.78052	-4474.74463	717.78699	656.71692	-4479.98145	676.59399	667.63190	-4470.28418	530.10797	710.36298	0.00000	0.00000	0.00000	-4404.35352	397.32086	551.02289	-4398.22607	355.89716	531.25562	-4436.76123	366.31943	592.17432	-4428.05225	329.90836	567.52710	-4359.83545	185.85410	478.23669	0.00000	0.00000	0.00000	-4285.23438	178.31871	452.85776	-4354.21924	73.37943	621.36090	-4409.89600	75.40334	627.45813	-4432.69189	71.09913	539.70459
1050	8.74167	0.00000	0.00000	0.00000	-4112.66797	1017.26416	797.30518	0.00000	0.00000	0.00000	-4082.38037	640.06696	701.90295	-4087.40796	690.36517	755.41180	-4105.02539	647.51843	749.64410	0.00000	0.00000	0.00000	0.00000	0.00000	0.00000	0.00000	0.00000	0.00000	0.00000	0.00000	0.00000	-4176.38525	365.43863	700.53186	0.00000	0.00000	0.00000	-4189.85693	95.58244	592.80847	0.00000	0.00000	0.00000	0.00000	0.00000	0.00000	-4225.82422	42.50591	728.91382	-4296.47461	62.45198	731.47290	-4323.09863	53.15675	705.41595	-4220.68750	1061.83069	514.10303	-4357.77295	1012.25702	713.10333	-4452.35156	693.20349	614.10669	-4460.38818	655.28455	634.81512	-4476.66211	718.20935	666.42468	-4481.46729	676.99548	677.45972	-4470.69824	530.78107	719.26428	0.00000	0.00000	0.00000	-4410.00244	392.67728	561.83270	-4404.97656	350.56354	543.11328	-4442.39258	363.60056	604.39075	-4434.77393	326.25180	580.74316	-4371.01465	178.28102	494.58551	0.00000	0.00000	0.00000	-4296.97754	168.22809	468.58185	-4366.79785	70.27194	641.19543	-4422.16064	73.71101	647.63916	-4445.94189	67.22472	560.31903
